<?xml version="1.0" encoding="UTF-8"?>
<svg id="Layer_2" data-name="Layer 2" xmlns="http://www.w3.org/2000/svg" viewBox="0 0 240.91 320.05">
  <defs>
    <style>
      .cls-1 {
        stroke-width: 2px;
        fill: #fff;
      }

      .cls-1, .cls-2 {
        stroke: #fff;
        stroke-miterlimit: 10;
      }

      .cls-3 {
        font-family: HelveticaNeue-Bold, 'Helvetica Neue';
        font-size: 23.59px;
        font-weight: 700;
        fill: #fff;
      }

      .cls-2 {
        fill: none;
        stroke-width: 5px;
      }
    </style>
  </defs>
  <g id="Layer_1-2" data-name="Layer 1">
    <g>
      <path class="cls-2" d="M211.69,275.92l-69.56,32.24c-16.69,7.73-36.42,4.37-49.61-8.45-12.55-12.21-25.11-24.42-37.66-36.63-8.59-8.36-13.44-19.83-13.44-31.82v-110.01c0-12.84,10.41-23.25,23.25-23.25h149.51c12.84,0,23.25,10.41,23.25,23.25v114.4c0,17.29-10.04,33-25.72,40.27Z"/>
      <path class="cls-1" d="M237.91,189.5c-9.83-6.8-28.01-21.39-40.5-46.5-7.97-16.02-10.87-30.8-12-41-17.45,7.68-41.49,16.23-71,21-29.28,4.74-54.6,4.25-73.5,2.5-8.28-7.08-24.41-22.85-33.5-48.5C-5.18,41.5,4.08,10.67,7.41,1h124c51.43,0,70.71,14.73,85,29,14.01,13.99,20.38,30.31,23.5,41.5-.67,39.33-1.33,78.67-2,118Z"/>
      <path class="cls-1" d="M97.19,194.64c0,5.58-3.54,10.57-8.83,12.33-2.09.69-4.54,1.17-7.36,1.17s-5.27-.47-7.36-1.17c-5.29-1.76-8.83-6.76-8.83-12.33v-27.6c0-5.3,3.17-10.17,8.12-12.07,2.77-1.06,5.89-1.58,9.08-1.45,2.42.1,4.75.57,6.87,1.36,5.04,1.87,8.31,6.77,8.31,12.14v27.61Z"/>
      <path class="cls-1" d="M171.91,195.04c0,5.58-3.54,10.57-8.83,12.33-2.09.69-4.54,1.17-7.36,1.17s-5.27-.47-7.36-1.17c-5.29-1.76-8.83-6.76-8.83-12.33v-27.6c0-5.3,3.17-10.17,8.12-12.07,2.77-1.06,5.89-1.58,9.08-1.45,2.42.1,4.75.57,6.87,1.36,5.04,1.87,8.31,6.77,8.31,12.14v27.61Z"/>
      <path class="cls-1" d="M136.13,247.86c-1.65,8.21-13.46,13.19-22.58,13.64,0,0-12.41.25-21.32-8.47-.48-.47-.83-1.07-1.02-1.72,0-.02-.01-.05-.02-.07-.78-2.73,1.5-5.38,4.31-4.99,4.6.64,10.43.89,17.03-.14,7.37-1.15,13.39-3.53,17.88-5.85,2.62-1.35,5.73.56,5.73,3.51.19,1.03.33,2.47,0,4.09Z"/>
      <circle class="cls-2" cx="46.76" cy="299.3" r="18.25"/>
      <text class="cls-3" transform="translate(37.57 307.91)"><tspan x="0" y="0">G</tspan></text>
    </g>
  </g>
</svg>
